
<svg xmlns="http://www.w3.org/2000/svg" xmlns:xlink="http://www.w3.org/1999/xlink" version="1.1" id="Layer_1" x="0px" y="0px" width="100px" height="74.835px" viewBox="0 0 100 74.835" enable-background="new 0 0 100 74.835" xml:space="preserve" class="runningman_icon">
<path fill='#aaa' d="M83.9,20.368c0.055,3.282-2.267,5.554-6.016,5.554c-3.536,0-5.014-2.189-5.347-5.239c-0.379-3.471,2.861-6.094,5.929-6.094  C80.992,14.589,83.849,17.3,83.9,20.368z"/>
<circle fill='#aaa' cx="91.591" cy="16.739" r="2.15"/>
<path fill='#aaa' d="M13.125,70.004c-0.46-5.14-2.42-18.673-4.029-17.886c-1.138,0.558-2.898,14.476-3.558,19.492  c-0.224,1.702-1.562,3.527-3.251,3.156c-1.588-0.348-2.569-2.245-2.213-4.883C0.554,66.32,1.548,54.65,1.865,49.411  c0.358-5.927,0.104-9.525,0.207-12.73c0.231-7.216,1.399-9.266,4.561-9.941c5.594-1.196,10.254-0.742,15.762-0.262  c3.75,0.327,7.417,1.308,7.396,3.304c-0.016,1.548-1.614,1.94-3.986,1.798c-1.967-0.118-7.944-0.807-10.43,0.894  c-1.694,1.159,0.289,13.081,0.802,16.58c0.862,5.874,2.442,16.864,2.769,22.031c0.107,1.705-0.807,3.572-2.506,3.744  C14.671,75.007,13.321,72.196,13.125,70.004z"/>
<path fill='#aaa' d="M24.12,34.363c-1.172-0.193-2.93-0.502-4.868-0.847c-1.235,0.113-1.962,0.327-2.362,0.504  c-0.121,0.552-0.167,1.634-0.028,3.629c3.438,0.567,6.687,1.065,7.33,1.036c2.393-0.108,4.499-0.229,4.465-2.174  C28.627,34.868,26.271,34.718,24.12,34.363z"/>
<path fill='#aaa' d="M99.185,31.366c-1.367-1.141-3.19,0.421-4.301,1.813c-0.874,1.099-2.908,3.72-4.165,3.764  c-1.277,0.044-6.203-7.608-9.341-8.691c-2.729-0.942-10.729-0.635-13.641-0.347c-3.058,0.303-5.374,2.302-6.723,4.616  c-0.97,1.665-2.044,2.969-3.29,6.245c-0.558,1.466-1.811,3.864-0.358,4.896c1.702,1.21,3.744-1.103,4.436-2.017  c1.522-2.015,2.956-6.942,4.563-7.927c0.628-0.385,4.298-0.682,4.172,0.044c-0.471,2.716-4.983,15.88-6.766,19.441  c-0.847,1.694-5.115,0.771-8.284,0.597c-1.778-0.098-5.76,0.21-5.76,2.764c0,1.479,1.964,2.489,3.898,3.024  c2.805,0.775,11.636,0.38,11.636,0.38c1.327,0,3.072-1.231,3.819-2.33c1.143-1.68,2.629-5.635,3.517-5.957  c1.109-0.403,6.51,4.126,6.607,5.969c0.135,2.554-3.695,9.667-3.695,9.667c-0.737,1.62-1.252,3.673,0.357,4.436  c1.703,0.805,4.206-0.96,4.974-2.018c2.015-2.776,4.443-8.351,5.802-11.288c0.873-1.883-0.345-3.988-1.373-4.959  c-1.906-1.801-6.288-5.885-6.177-7.317c0.192-2.45,2.237-8.879,3.095-9.266c0.735-0.331,6.761,6.008,8.732,6.288  c2.118,0.298,6.896-5.177,7.999-6.963C100.015,34.457,100.554,32.505,99.185,31.366z"/>
<path fill='#aaa' d="M94.527,2.131c0.116-1.036-0.565-1.915-1.364-2.02c-1.952-0.256-2.352-0.016-4.103,0.168  c-0.301,0.032-1.247,0.442-1.247,1.453c0,2.255,1.556,10.021,1.623,10.237c0.189,0.599,0.979,1.23,2.209,1.23  c1.041,0,1.767-0.284,1.989-1.301C94.522,7.839,94.407,3.201,94.527,2.131z"/>
<path fill='#aaa' d="M14.219,18.956c0.057,3.401-2.578,5.756-5.756,5.756c-3.663,0-5.672-2.269-6.017-5.429C2.054,15.686,5.285,13.2,8.463,13.2  C11.08,13.2,14.166,15.777,14.219,18.956z"/>
</svg>